<svg xmlns="http://www.w3.org/2000/svg" viewBox="0 0 512 512">
  <defs>
    <linearGradient id="bg" x1="70" x2="442" y1="56" y2="460" gradientUnits="userSpaceOnUse">
      <stop stop-color="#39d1a7"/>
      <stop offset="1" stop-color="#1479c9"/>
    </linearGradient>
  </defs>
  <rect width="512" height="512" rx="112" fill="#101828"/>
  <rect x="48" y="48" width="416" height="416" rx="86" fill="url(#bg)"/>
  <path fill="#fff" d="M240 108c24 0 43 19 43 43s-19 43-43 43-43-19-43-43 19-43 43-43Zm-73 126 65-35 42 24 61-11 8 43-75 14-38-21-42 22 48 18-26 95-48-13 23-65-63-29 15-42Zm115 73 31 15 61 71-36 31-55-61-45 18-18-43 62-31Z"/>
  <path fill="#101828" d="m332 170 17 12 34-26 28 37-32 25 32 23-28 38-37-27-29 18-25-38 40-25Z" opacity=".82"/>
</svg>
